<?xml version="1.0" encoding="UTF-8" standalone="no"?>
<!DOCTYPE svg PUBLIC "-//W3C//DTD SVG 1.1//EN"
 "http://www.w3.org/Graphics/SVG/1.1/DTD/svg11.dtd">
<!-- Generated by graphviz version 2.46.0 (20210118.1747)
 -->
<!-- Pages: 1 -->
<svg width="307pt" height="116pt"
 viewBox="0.00 0.00 307.09 116.34" xmlns="http://www.w3.org/2000/svg" xmlns:xlink="http://www.w3.org/1999/xlink">
<g id="graph0" class="graph" transform="scale(1 1) rotate(0) translate(4 112.34)">
<polygon fill="white" stroke="transparent" points="-4,4 -4,-112.34 303.09,-112.34 303.09,4 -4,4"/>
<!-- s0 -->
<g id="node1" class="node">
<title>s0</title>
<ellipse fill="none" stroke="black" cx="109.85" cy="-23.49" rx="18.7" ry="18.7"/>
<text text-anchor="middle" x="109.85" y="-19.79" font-family="Times New Roman,serif" font-size="14.00">s0</text>
</g>
<!-- s1 -->
<g id="node2" class="node">
<title>s1</title>
<ellipse fill="none" stroke="black" cx="190.54" cy="-23.49" rx="18.7" ry="18.7"/>
<text text-anchor="middle" x="190.54" y="-19.79" font-family="Times New Roman,serif" font-size="14.00">s1</text>
</g>
<!-- s0&#45;&gt;s1 -->
<g id="edge2" class="edge">
<title>s0&#45;&gt;s1</title>
<path fill="none" stroke="black" d="M128.71,-23.49C138.3,-23.49 150.35,-23.49 161.19,-23.49"/>
<polygon fill="black" stroke="black" points="161.49,-26.99 171.49,-23.49 161.49,-19.99 161.49,-26.99"/>
<text text-anchor="middle" x="150.2" y="-27.29" font-family="Times New Roman,serif" font-size="14.00">a</text>
</g>
<!-- s1&#45;&gt;s1 -->
<g id="edge3" class="edge">
<title>s1&#45;&gt;s1</title>
<path fill="none" stroke="black" d="M186.93,-42.07C186.37,-51.68 187.58,-60.34 190.54,-60.34 192.4,-60.34 193.57,-56.96 194.05,-52.07"/>
<polygon fill="black" stroke="black" points="197.55,-52.11 194.16,-42.07 190.55,-52.03 197.55,-52.11"/>
<text text-anchor="middle" x="190.54" y="-64.14" font-family="Times New Roman,serif" font-size="14.00">a</text>
</g>
<!-- s1&#45;&gt;s1 -->
<g id="edge4" class="edge">
<title>s1&#45;&gt;s1</title>
<path fill="none" stroke="black" d="M184.58,-41.47C181.29,-59.04 183.28,-78.34 190.54,-78.34 196.45,-78.34 198.87,-65.6 197.8,-51.39"/>
<polygon fill="black" stroke="black" points="201.27,-50.93 196.51,-41.47 194.33,-51.84 201.27,-50.93"/>
<text text-anchor="middle" x="190.54" y="-82.14" font-family="Times New Roman,serif" font-size="14.00">b</text>
</g>
<!-- s2 -->
<g id="node3" class="node">
<title>s2</title>
<ellipse fill="none" stroke="black" cx="276.24" cy="-23.49" rx="18.72" ry="18.72"/>
<ellipse fill="none" stroke="black" cx="276.24" cy="-23.49" rx="22.7" ry="22.7"/>
<text text-anchor="middle" x="276.24" y="-19.79" font-family="Times New Roman,serif" font-size="14.00">s2</text>
</g>
<!-- s1&#45;&gt;s2 -->
<g id="edge5" class="edge">
<title>s1&#45;&gt;s2</title>
<path fill="none" stroke="black" d="M207.47,-32.32C213.52,-35.21 220.59,-38.04 227.39,-39.49 233.69,-40.83 240.32,-40.08 246.56,-38.34"/>
<polygon fill="black" stroke="black" points="247.76,-41.63 255.96,-34.92 245.37,-35.05 247.76,-41.63"/>
<text text-anchor="middle" x="231.39" y="-43.29" font-family="Times New Roman,serif" font-size="14.00">c</text>
</g>
<!-- s2&#45;&gt;s1 -->
<g id="edge6" class="edge">
<title>s2&#45;&gt;s1</title>
<path fill="none" stroke="black" d="M253.34,-21.16C245.19,-20.54 235.88,-20.14 227.39,-20.49 224.83,-20.6 222.16,-20.75 219.49,-20.92"/>
<polygon fill="black" stroke="black" points="219.1,-17.44 209.4,-21.7 219.64,-24.42 219.1,-17.44"/>
<text text-anchor="middle" x="231.39" y="-24.29" font-family="Times New Roman,serif" font-size="14.00">a</text>
</g>
<!-- s2&#45;&gt;s1 -->
<g id="edge7" class="edge">
<title>s2&#45;&gt;s1</title>
<path fill="none" stroke="black" d="M258.02,-8.94C249.13,-3.16 237.95,1.49 227.39,-1.49 223.12,-2.7 218.86,-4.57 214.85,-6.72"/>
<polygon fill="black" stroke="black" points="212.75,-3.9 206.03,-12.08 216.39,-9.88 212.75,-3.9"/>
<text text-anchor="middle" x="231.39" y="-5.29" font-family="Times New Roman,serif" font-size="14.00">b</text>
</g>
<!-- s2&#45;&gt;s2 -->
<g id="edge8" class="edge">
<title>s2&#45;&gt;s2</title>
<path fill="none" stroke="black" d="M268.19,-44.93C267.2,-55.24 269.88,-64.34 276.24,-64.34 280.32,-64.34 282.88,-60.6 283.94,-55.21"/>
<polygon fill="black" stroke="black" points="287.44,-55.04 284.29,-44.93 280.45,-54.8 287.44,-55.04"/>
<text text-anchor="middle" x="276.24" y="-68.14" font-family="Times New Roman,serif" font-size="14.00">c</text>
</g>
<g id="node4" class="node">
<title></title>
</g>
<!-- &#45;&gt;s0 -->
<g id="edge1" class="edge">
<title>&#45;&gt;s0</title>
<path fill="none" stroke="black" d="M54.03,-23.49C62.56,-23.49 72.08,-23.49 80.75,-23.49"/>
<polygon fill="black" stroke="black" points="80.8,-26.99 90.8,-23.49 80.8,-19.99 80.8,-26.99"/>
</g>
</g>
</svg>
